<svg width="300" height="300" viewBox="0 0 300 300" fill="none" xmlns="http://www.w3.org/2000/svg">
<mask id="path-1-outside-1_2_14" maskUnits="userSpaceOnUse" x="47" y="48" width="104" height="204" fill="black">
<rect fill="white" x="47" y="48" width="104" height="204"/>
<path fill-rule="evenodd" clip-rule="evenodd" d="M78.2893 79.2893C97.043 60.5357 122.478 50 149 50V75C139.151 75 129.398 76.9399 120.299 80.709C111.199 84.4781 102.931 90.0026 95.967 96.967C89.0026 103.931 83.4781 112.199 79.709 121.299C75.9399 130.398 74 140.151 74 150C74 159.849 75.9399 169.602 79.709 178.701C83.4781 187.801 89.0026 196.069 95.967 203.033C102.931 209.997 111.199 215.522 120.299 219.291C129.398 223.06 139.151 225 149 225L149 250C122.478 250 97.0429 239.464 78.2893 220.711C59.5357 201.957 49 176.522 49 150C49 123.478 59.5357 98.043 78.2893 79.2893Z"/>
</mask>
<path fill-rule="evenodd" clip-rule="evenodd" d="M78.2893 79.2893C97.043 60.5357 122.478 50 149 50V75C139.151 75 129.398 76.9399 120.299 80.709C111.199 84.4781 102.931 90.0026 95.967 96.967C89.0026 103.931 83.4781 112.199 79.709 121.299C75.9399 130.398 74 140.151 74 150C74 159.849 75.9399 169.602 79.709 178.701C83.4781 187.801 89.0026 196.069 95.967 203.033C102.931 209.997 111.199 215.522 120.299 219.291C129.398 223.06 139.151 225 149 225L149 250C122.478 250 97.0429 239.464 78.2893 220.711C59.5357 201.957 49 176.522 49 150C49 123.478 59.5357 98.043 78.2893 79.2893Z" fill="url(#paint0_radial_2_14)"/>
<path d="M149 50H151V48H149V50ZM78.2893 79.2893L76.8751 77.8751L78.2893 79.2893ZM149 75V77H151V75H149ZM120.299 80.709L119.533 78.8613L120.299 80.709ZM95.967 96.967L94.5528 95.5528V95.5528L95.967 96.967ZM79.709 121.299L77.8613 120.533L79.709 121.299ZM79.709 178.701L77.8613 179.467L79.709 178.701ZM95.967 203.033L97.3812 201.619H97.3812L95.967 203.033ZM120.299 219.291L121.064 217.443L120.299 219.291ZM149 225H151V223H149V225ZM149 250V252H151V250H149ZM78.2893 220.711L79.7035 219.296L78.2893 220.711ZM49 150H47H49ZM149 48C121.948 48 96.0038 58.7464 76.8751 77.8751L79.7035 80.7035C98.0821 62.325 123.009 52 149 52V48ZM151 75V50H147V75H151ZM149 73C138.888 73 128.875 74.9917 119.533 78.8613L121.064 82.5568C129.921 78.8882 139.414 77 149 77V73ZM119.533 78.8613C110.191 82.7309 101.703 88.4027 94.5528 95.5528L97.3812 98.3812C104.16 91.6025 112.207 86.2254 121.064 82.5568L119.533 78.8613ZM94.5528 95.5528C87.4027 102.703 81.7309 111.191 77.8613 120.533L81.5568 122.064C85.2254 113.207 90.6025 105.16 97.3812 98.3812L94.5528 95.5528ZM77.8613 120.533C73.9917 129.875 72 139.888 72 150H76C76 140.414 77.8882 130.921 81.5568 122.064L77.8613 120.533ZM72 150C72 160.112 73.9917 170.125 77.8613 179.467L81.5568 177.936C77.8882 169.079 76 159.587 76 150H72ZM77.8613 179.467C81.7309 188.809 87.4027 197.297 94.5528 204.447L97.3812 201.619C90.6025 194.84 85.2254 186.793 81.5568 177.936L77.8613 179.467ZM94.5528 204.447C101.703 211.597 110.191 217.269 119.533 221.139L121.064 217.443C112.207 213.775 104.16 208.397 97.3812 201.619L94.5528 204.447ZM119.533 221.139C128.875 225.008 138.888 227 149 227V223C139.414 223 129.921 221.112 121.064 217.443L119.533 221.139ZM151 250L151 225H147L147 250H151ZM76.8751 222.125C96.0038 241.254 121.948 252 149 252V248C123.009 248 98.0821 237.675 79.7035 219.296L76.8751 222.125ZM47 150C47 177.052 57.7464 202.996 76.8751 222.125L79.7035 219.296C61.325 200.918 51 175.991 51 150H47ZM76.8751 77.8751C57.7464 97.0038 47 122.948 47 150H51C51 124.009 61.325 99.0821 79.7035 80.7035L76.8751 77.8751Z" fill="black" mask="url(#path-1-outside-1_2_14)"/>
<mask id="path-3-outside-2_2_14" maskUnits="userSpaceOnUse" x="147" y="48" width="104" height="204" fill="black">
<rect fill="white" x="147" y="48" width="104" height="204"/>
<path fill-rule="evenodd" clip-rule="evenodd" d="M219.711 220.711C200.957 239.464 175.522 250 149 250V225C158.849 225 168.602 223.06 177.701 219.291C186.801 215.522 195.069 209.997 202.033 203.033C208.997 196.069 214.522 187.801 218.291 178.701C222.06 169.602 224 159.849 224 150C224 140.151 222.06 130.398 218.291 121.299C214.522 112.199 208.997 103.931 202.033 96.967C195.069 90.0026 186.801 84.4781 177.701 80.709C168.602 76.9399 158.849 75 149 75L149 50C175.522 50 200.957 60.5357 219.711 79.2893C238.464 98.043 249 123.478 249 150C249 176.522 238.464 201.957 219.711 220.711Z"/>
</mask>
<path fill-rule="evenodd" clip-rule="evenodd" d="M219.711 220.711C200.957 239.464 175.522 250 149 250V225C158.849 225 168.602 223.06 177.701 219.291C186.801 215.522 195.069 209.997 202.033 203.033C208.997 196.069 214.522 187.801 218.291 178.701C222.06 169.602 224 159.849 224 150C224 140.151 222.06 130.398 218.291 121.299C214.522 112.199 208.997 103.931 202.033 96.967C195.069 90.0026 186.801 84.4781 177.701 80.709C168.602 76.9399 158.849 75 149 75L149 50C175.522 50 200.957 60.5357 219.711 79.2893C238.464 98.043 249 123.478 249 150C249 176.522 238.464 201.957 219.711 220.711Z" fill="url(#paint1_radial_2_14)"/>
<path d="M149 250H147V252H149V250ZM219.711 220.711L221.125 222.125L219.711 220.711ZM149 225V223H147V225H149ZM177.701 219.291L178.467 221.139L177.701 219.291ZM202.033 203.033L203.447 204.447V204.447L202.033 203.033ZM218.291 178.701L220.139 179.467L218.291 178.701ZM218.291 121.299L220.139 120.533L218.291 121.299ZM202.033 96.967L200.619 98.3812H200.619L202.033 96.967ZM177.701 80.709L176.936 82.5568L177.701 80.709ZM149 75H147V77H149V75ZM149 50V48H147V50H149ZM219.711 79.2893L218.296 80.7036L219.711 79.2893ZM249 150H251H249ZM149 252C176.052 252 201.996 241.254 221.125 222.125L218.296 219.296C199.918 237.675 174.991 248 149 248V252ZM147 225V250H151V225H147ZM149 227C159.112 227 169.125 225.008 178.467 221.139L176.936 217.443C168.079 221.112 158.586 223 149 223V227ZM178.467 221.139C187.809 217.269 196.297 211.597 203.447 204.447L200.619 201.619C193.84 208.397 185.793 213.775 176.936 217.443L178.467 221.139ZM203.447 204.447C210.597 197.297 216.269 188.809 220.139 179.467L216.443 177.936C212.775 186.793 207.397 194.84 200.619 201.619L203.447 204.447ZM220.139 179.467C224.008 170.125 226 160.112 226 150H222C222 159.586 220.112 169.079 216.443 177.936L220.139 179.467ZM226 150C226 139.888 224.008 129.875 220.139 120.533L216.443 122.064C220.112 130.921 222 140.413 222 150H226ZM220.139 120.533C216.269 111.191 210.597 102.703 203.447 95.5528L200.619 98.3812C207.397 105.16 212.775 113.207 216.443 122.064L220.139 120.533ZM203.447 95.5528C196.297 88.4027 187.809 82.7309 178.467 78.8613L176.936 82.5568C185.793 86.2254 193.84 91.6025 200.619 98.3812L203.447 95.5528ZM178.467 78.8613C169.125 74.9917 159.112 73 149 73V77C158.586 77 168.079 78.8882 176.936 82.5568L178.467 78.8613ZM147 50L147 75H151L151 50H147ZM221.125 77.8751C201.996 58.7464 176.052 48 149 48V52C174.991 52 199.918 62.325 218.296 80.7036L221.125 77.8751ZM251 150C251 122.948 240.254 97.0038 221.125 77.8751L218.296 80.7036C236.675 99.0821 247 124.009 247 150H251ZM221.125 222.125C240.254 202.996 251 177.052 251 150H247C247 175.991 236.675 200.918 218.296 219.296L221.125 222.125Z" fill="black" mask="url(#path-3-outside-2_2_14)"/>
<mask id="path-5-outside-3_2_14" maskUnits="userSpaceOnUse" x="27" y="125" width="62" height="51" fill="black">
<rect fill="white" x="27" y="125" width="62" height="51"/>
<path fill-rule="evenodd" clip-rule="evenodd" d="M47.5 172.301L85 150.651L47.5 129V141.124L31 150.651L47.5 160.177V172.301Z"/>
</mask>
<path fill-rule="evenodd" clip-rule="evenodd" d="M47.5 172.301L85 150.651L47.5 129V141.124L31 150.651L47.5 160.177V172.301Z" fill="#6BDCEF"/>
<path d="M85 150.651L86 152.383L89 150.651L86 148.919L85 150.651ZM47.5 172.301H45.5V175.765L48.5 174.033L47.5 172.301ZM47.5 129L48.5 127.268L45.5 125.536V129H47.5ZM47.5 141.124L48.5 142.856L49.5 142.279V141.124H47.5ZM31 150.651L30 148.919L27 150.651L30 152.383L31 150.651ZM47.5 160.177H49.5V159.022L48.5 158.445L47.5 160.177ZM84 148.919L46.5 170.569L48.5 174.033L86 152.383L84 148.919ZM46.5 130.732L84 152.383L86 148.919L48.5 127.268L46.5 130.732ZM49.5 141.124V129H45.5V141.124H49.5ZM32 152.383L48.5 142.856L46.5 139.392L30 148.919L32 152.383ZM48.5 158.445L32 148.919L30 152.383L46.5 161.909L48.5 158.445ZM49.5 172.301V160.177H45.5V172.301H49.5Z" fill="black" mask="url(#path-5-outside-3_2_14)"/>
<mask id="path-7-outside-4_2_14" maskUnits="userSpaceOnUse" x="210" y="125.301" width="62" height="51" fill="black">
<rect fill="white" x="210" y="125.301" width="62" height="51"/>
<path fill-rule="evenodd" clip-rule="evenodd" d="M251.5 129L214 150.651L251.5 172.301V160.177L268 150.651L251.5 141.124V129Z"/>
</mask>
<path fill-rule="evenodd" clip-rule="evenodd" d="M251.5 129L214 150.651L251.5 172.301V160.177L268 150.651L251.5 141.124V129Z" fill="#8BDFAB"/>
<path d="M214 150.651L213 148.919L210 150.651L213 152.383L214 150.651ZM251.5 129H253.5V125.536L250.5 127.268L251.5 129ZM251.5 172.301L250.5 174.033L253.5 175.765V172.301H251.5ZM251.5 160.177L250.5 158.445L249.5 159.022V160.177H251.5ZM268 150.651L269 152.383L272 150.651L269 148.919L268 150.651ZM251.5 141.124H249.5V142.279L250.5 142.856L251.5 141.124ZM215 152.383L252.5 130.732L250.5 127.268L213 148.919L215 152.383ZM252.5 170.569L215 148.919L213 152.383L250.5 174.033L252.5 170.569ZM249.5 160.177V172.301H253.5V160.177H249.5ZM267 148.919L250.5 158.445L252.5 161.909L269 152.383L267 148.919ZM250.5 142.856L267 152.383L269 148.919L252.5 139.392L250.5 142.856ZM249.5 129V141.124H253.5V129H249.5Z" fill="black" mask="url(#path-7-outside-4_2_14)"/>
<g filter="url(#filter0_i_2_14)">
<path fill-rule="evenodd" clip-rule="evenodd" d="M155.997 76L147.997 61L139.997 76V91.0783C131.2 92.7049 122.662 96.967 116.336 103.351C107.794 111.969 103.211 124.685 108.049 138.998C111.662 149.689 119.779 154.981 128.028 157.534C131.848 158.716 135.977 159.396 139.997 159.83V189.714C130.381 187.357 124.281 180.355 120.258 172.791L102.6 182.183C108.668 193.591 120.209 207.336 139.997 210.069V226L147.997 241L155.997 226V209.548C163.407 207.886 170.873 204.234 176.955 199.144C185.573 191.932 192.544 180.789 191.325 166.85C190.862 161.559 189.226 156.799 186.212 152.822C183.221 148.876 179.361 146.345 175.467 144.696C169.388 142.122 162.193 141.335 155.997 140.909V111.465C166.036 114.263 167.942 118.422 171.401 126.5L191.325 122.5C186.224 103.757 174.464 94.0543 155.997 91.0033V76ZM139.997 111.692V139.69C137.78 139.391 135.77 138.994 133.941 138.428C129.773 137.138 127.952 135.423 126.996 132.594C124.89 126.364 126.62 121.386 130.541 117.429C133.046 114.902 136.391 112.912 139.997 111.692ZM155.997 160.972C161.153 161.382 164.928 161.952 167.669 163.113C169.169 163.748 169.878 164.383 170.273 164.903C170.644 165.393 171.209 166.398 171.401 168.593C171.898 174.278 169.238 179.523 164.119 183.807C161.614 185.903 158.786 187.525 155.997 188.653V160.972Z" fill="url(#paint2_linear_2_14)"/>
</g>
<path d="M139.997 159.83C135.977 159.396 131.848 158.716 128.028 157.534C119.779 154.981 111.662 149.689 108.049 138.998C103.211 124.685 107.794 111.969 116.336 103.351C122.662 96.967 131.2 92.7049 139.997 91.0783V76L147.997 61L155.997 76V91.0033C174.464 94.0543 186.224 103.757 191.325 122.5L171.401 126.5C167.942 118.422 166.036 114.263 155.997 111.465V140.909M139.997 159.83V189.714C130.381 187.357 124.281 180.355 120.258 172.791L102.6 182.183C108.668 193.591 120.209 207.336 139.997 210.069V226L147.997 241L155.997 226V209.548C163.407 207.886 170.873 204.234 176.955 199.144C185.573 191.932 192.544 180.789 191.325 166.85C190.862 161.559 189.226 156.799 186.212 152.822C183.221 148.876 179.361 146.345 175.467 144.696C169.388 142.122 162.193 141.335 155.997 140.909M139.997 159.83C143.416 160.2 146.757 160.392 149.763 160.564C150.284 160.594 150.796 160.624 151.296 160.653C152.978 160.753 154.543 160.856 155.997 160.972M155.997 140.909C154.791 140.826 153.623 140.756 152.508 140.69L151.822 140.65C147.328 140.384 143.417 140.152 139.997 139.69M139.997 139.69V111.692C136.391 112.912 133.046 114.902 130.541 117.429C126.62 121.386 124.89 126.364 126.996 132.594C127.952 135.423 129.773 137.138 133.941 138.428C135.77 138.994 137.78 139.391 139.997 139.69ZM155.997 160.972C161.153 161.382 164.928 161.952 167.669 163.113C169.169 163.748 169.878 164.383 170.273 164.903C170.644 165.393 171.209 166.398 171.401 168.593C171.898 174.278 169.238 179.523 164.119 183.807C161.614 185.903 158.786 187.525 155.997 188.653V160.972Z" stroke="black" stroke-width="2"/>
<defs>
<filter id="filter0_i_2_14" x="101.248" y="58.875" width="93.323" height="188.25" filterUnits="userSpaceOnUse" color-interpolation-filters="sRGB">
<feFlood flood-opacity="0" result="BackgroundImageFix"/>
<feBlend mode="normal" in="SourceGraphic" in2="BackgroundImageFix" result="shape"/>
<feColorMatrix in="SourceAlpha" type="matrix" values="0 0 0 0 0 0 0 0 0 0 0 0 0 0 0 0 0 0 127 0" result="hardAlpha"/>
<feOffset dx="2" dy="4"/>
<feGaussianBlur stdDeviation="2"/>
<feComposite in2="hardAlpha" operator="arithmetic" k2="-1" k3="1"/>
<feColorMatrix type="matrix" values="0 0 0 0 1 0 0 0 0 1 0 0 0 0 1 0 0 0 1 0"/>
<feBlend mode="normal" in2="shape" result="effect1_innerShadow_2_14"/>
</filter>
<radialGradient id="paint0_radial_2_14" cx="0" cy="0" r="1" gradientUnits="userSpaceOnUse" gradientTransform="translate(149 150) rotate(180) scale(100 100)">
<stop stop-color="#3A8DA3"/>
<stop offset="0.8" stop-color="#3A8DA3"/>
<stop offset="0.85" stop-color="#6BDCEF"/>
<stop offset="0.94" stop-color="#6BDCEF"/>
<stop offset="0.98" stop-color="#C9FBFF"/>
<stop offset="1" stop-color="#C9FBFF"/>
</radialGradient>
<radialGradient id="paint1_radial_2_14" cx="0" cy="0" r="1" gradientUnits="userSpaceOnUse" gradientTransform="translate(149 150) scale(100 100)">
<stop stop-color="#498A76"/>
<stop offset="0.8" stop-color="#498A76"/>
<stop offset="0.85" stop-color="#8BDFAB"/>
<stop offset="0.94" stop-color="#8BDFAB"/>
<stop offset="0.98" stop-color="#DFF3E5"/>
<stop offset="1" stop-color="#DFF3E5"/>
</radialGradient>
<linearGradient id="paint2_linear_2_14" x1="92" y1="71.5" x2="200.5" y2="232.5" gradientUnits="userSpaceOnUse">
<stop stop-color="#E8E28B"/>
<stop offset="1" stop-color="#C2BE48"/>
</linearGradient>
</defs>
</svg>
